<svg width="37" height="25" viewBox="0 0 37 25" fill="none" xmlns="http://www.w3.org/2000/svg">
<path d="M16.2614 7.23864C16.2917 6.18561 15.9697 5.37879 15.2955 4.81818C14.6288 4.25758 13.6705 3.97727 12.4205 3.97727C11.5417 3.97727 10.7652 4.10985 10.0909 4.375C9.42424 4.63258 8.88636 4.99242 8.47727 5.45454C8.06818 5.90909 7.81439 6.42803 7.71591 7.01136C7.63258 7.48864 7.67424 7.9053 7.84091 8.26136C8.00758 8.61742 8.26136 8.92045 8.60227 9.17045C8.95076 9.42045 9.3447 9.62879 9.78409 9.79545C10.2311 9.96212 10.6856 10.1023 11.1477 10.2159L13.2386 10.7614C14.072 10.9659 14.8674 11.2424 15.625 11.5909C16.3826 11.9318 17.0379 12.3712 17.5909 12.9091C18.1515 13.4394 18.5606 14.0795 18.8182 14.8295C19.0758 15.5795 19.1174 16.4583 18.9432 17.4659C18.7159 18.8295 18.1667 20.0303 17.2955 21.0682C16.4318 22.0985 15.2955 22.9053 13.8864 23.4886C12.4848 24.0644 10.8523 24.3523 8.98864 24.3523C7.18561 24.3523 5.66288 24.072 4.42045 23.5114C3.17803 22.9432 2.26894 22.1212 1.69318 21.0455C1.125 19.9697 0.943182 18.6629 1.14773 17.125H5.29545C5.21212 17.9356 5.3447 18.6098 5.69318 19.1477C6.04924 19.6856 6.56061 20.0871 7.22727 20.3523C7.89394 20.6174 8.66667 20.75 9.54545 20.75C10.4621 20.75 11.2917 20.6136 12.0341 20.3409C12.7765 20.0606 13.3826 19.6742 13.8523 19.1818C14.3295 18.6818 14.6212 18.0985 14.7273 17.4318C14.8333 16.8333 14.7462 16.3333 14.4659 15.9318C14.1856 15.5303 13.75 15.197 13.1591 14.9318C12.5758 14.6591 11.8788 14.4167 11.0682 14.2045L8.54545 13.5227C6.7197 13.0227 5.33333 12.2727 4.38636 11.2727C3.44697 10.2727 3.11364 8.93939 3.38636 7.27273C3.61364 5.89394 4.18561 4.69318 5.10227 3.67045C6.01894 2.64015 7.16667 1.84091 8.54545 1.27273C9.92424 0.696969 11.4318 0.40909 13.0682 0.40909C14.7197 0.40909 16.1174 0.696969 17.2614 1.27273C18.4129 1.84848 19.2538 2.65151 19.7841 3.68182C20.322 4.70454 20.5 5.89015 20.3182 7.23864H16.2614Z" fill="url(#paint0_linear_4537_171)"/>
<path d="M21.6222 24L25.4858 0.727272H29.7017L26.429 20.4659H36.679L36.0881 24H21.6222Z" fill="#444444"/>
<defs>
<linearGradient id="paint0_linear_4537_171" x1="23" y1="-7" x2="23" y2="32" gradientUnits="userSpaceOnUse">
<stop stop-color="#0571D3"/>
<stop offset="1" stop-color="#033A6D"/>
</linearGradient>
</defs>
</svg>
