<?xml version="1.0" standalone="no"?>
<svg xmlns:xlink="http://www.w3.org/1999/xlink" id="wave" style="transform:rotate(180deg); transition: 0.3s" viewBox="0 0 1440 100" version="1.1" xmlns="http://www.w3.org/2000/svg"><defs><linearGradient id="sw-gradient-0" x1="0" x2="0" y1="1" y2="0"><stop stop-color="rgba(255, 255, 255, 1)" offset="0%"/><stop stop-color="rgba(255, 255, 255, 1)" offset="100%"/></linearGradient></defs><path style="transform:translate(0, 0px); opacity:1" fill="url(#sw-gradient-0)" d="M0,20L15,20C30,20,60,20,90,23.3C120,27,150,33,180,35C210,37,240,33,270,40C300,47,330,63,360,66.7C390,70,420,60,450,48.3C480,37,510,23,540,15C570,7,600,3,630,11.7C660,20,690,40,720,53.3C750,67,780,73,810,73.3C840,73,870,67,900,60C930,53,960,47,990,40C1020,33,1050,27,1080,28.3C1110,30,1140,40,1170,48.3C1200,57,1230,63,1260,68.3C1290,73,1320,77,1350,66.7C1380,57,1410,33,1440,26.7C1470,20,1500,30,1530,28.3C1560,27,1590,13,1620,20C1650,27,1680,53,1710,53.3C1740,53,1770,27,1800,20C1830,13,1860,27,1890,35C1920,43,1950,47,1980,45C2010,43,2040,37,2070,35C2100,33,2130,37,2145,38.3L2160,40L2160,100L2145,100C2130,100,2100,100,2070,100C2040,100,2010,100,1980,100C1950,100,1920,100,1890,100C1860,100,1830,100,1800,100C1770,100,1740,100,1710,100C1680,100,1650,100,1620,100C1590,100,1560,100,1530,100C1500,100,1470,100,1440,100C1410,100,1380,100,1350,100C1320,100,1290,100,1260,100C1230,100,1200,100,1170,100C1140,100,1110,100,1080,100C1050,100,1020,100,990,100C960,100,930,100,900,100C870,100,840,100,810,100C780,100,750,100,720,100C690,100,660,100,630,100C600,100,570,100,540,100C510,100,480,100,450,100C420,100,390,100,360,100C330,100,300,100,270,100C240,100,210,100,180,100C150,100,120,100,90,100C60,100,30,100,15,100L0,100Z"/></svg>